<svg xmlns="http://www.w3.org/2000/svg" xmlns:xlink="http://www.w3.org/1999/xlink" width="300" zoomAndPan="magnify" viewBox="0 0 224.87999 60" height="80" preserveAspectRatio="xMidYMid meet" version="1.0"><defs><g/></defs><g fill="#6f4323" fill-opacity="1"><g transform="translate(28.110314, 36.74885)"><g><path d="M 22.75 5.34375 C 21.613281 5.34375 20.523438 5.128906 19.484375 4.703125 C 18.453125 4.285156 17.457031 3.742188 16.5 3.078125 C 15.550781 2.421875 14.625 1.707031 13.71875 0.9375 C 12.820312 0.164062 11.925781 -0.582031 11.03125 -1.3125 C 10.226562 -0.394531 9.28125 0.328125 8.1875 0.859375 C 7.09375 1.390625 5.8125 1.65625 4.34375 1.65625 C 3.59375 1.65625 2.890625 1.476562 2.234375 1.125 C 1.585938 0.78125 1.050781 0.304688 0.625 -0.296875 C 0.207031 -0.898438 0 -1.59375 0 -2.375 C 0 -3.125 0.171875 -3.78125 0.515625 -4.34375 C 0.859375 -4.914062 1.328125 -5.367188 1.921875 -5.703125 C 2.523438 -6.046875 3.191406 -6.21875 3.921875 -6.21875 C 4.585938 -6.21875 5.269531 -6.125 5.96875 -5.9375 C 6.675781 -5.75 7.390625 -5.492188 8.109375 -5.171875 C 8.816406 -6.222656 9.4375 -7.457031 9.96875 -8.875 C 10.507812 -10.289062 11.039062 -11.742188 11.5625 -13.234375 C 10.53125 -13.460938 9.503906 -13.8125 8.484375 -14.28125 C 7.472656 -14.757812 6.554688 -15.351562 5.734375 -16.0625 C 4.910156 -16.769531 4.25 -17.582031 3.75 -18.5 C 3.257812 -19.414062 3.015625 -20.429688 3.015625 -21.546875 C 3.015625 -22.179688 3.109375 -22.734375 3.296875 -23.203125 C 3.484375 -23.671875 3.703125 -24.035156 3.953125 -24.296875 C 4.210938 -24.554688 4.425781 -24.6875 4.59375 -24.6875 C 4.8125 -24.6875 4.921875 -24.507812 4.921875 -24.15625 C 4.921875 -23.070312 5.109375 -22.03125 5.484375 -21.03125 C 5.859375 -20.03125 6.375 -19.113281 7.03125 -18.28125 C 7.695312 -17.457031 8.460938 -16.753906 9.328125 -16.171875 C 10.203125 -15.597656 11.132812 -15.1875 12.125 -14.9375 C 12.582031 -16.269531 13.066406 -17.546875 13.578125 -18.765625 C 14.097656 -19.984375 14.675781 -21.078125 15.3125 -22.046875 C 15.945312 -23.015625 16.679688 -23.78125 17.515625 -24.34375 C 18.359375 -24.90625 19.335938 -25.1875 20.453125 -25.1875 C 21.722656 -25.1875 22.722656 -24.789062 23.453125 -24 C 24.191406 -23.21875 24.5625 -22.269531 24.5625 -21.15625 C 24.5625 -20.332031 24.363281 -19.488281 23.96875 -18.625 C 23.582031 -17.757812 23.007812 -16.941406 22.25 -16.171875 C 21.5 -15.410156 20.585938 -14.753906 19.515625 -14.203125 C 18.441406 -13.648438 17.234375 -13.28125 15.890625 -13.09375 C 15.484375 -11.34375 15.003906 -9.570312 14.453125 -7.78125 C 13.898438 -5.988281 13.164062 -4.382812 12.25 -2.96875 C 13.5 -2.238281 14.742188 -1.507812 15.984375 -0.78125 C 17.234375 -0.0507812 18.460938 0.550781 19.671875 1.03125 C 20.878906 1.519531 22.046875 1.765625 23.171875 1.765625 C 23.660156 1.765625 24.144531 1.710938 24.625 1.609375 C 25.113281 1.503906 25.523438 1.332031 25.859375 1.09375 C 26.191406 0.863281 26.359375 0.570312 26.359375 0.21875 C 26.359375 -0.0195312 26.429688 -0.125 26.578125 -0.09375 C 26.734375 -0.0703125 26.882812 0.0976562 27.03125 0.421875 C 27.175781 0.753906 27.25 1.25 27.25 1.90625 C 27.25 2.570312 27.039062 3.164062 26.625 3.6875 C 26.207031 4.21875 25.65625 4.625 24.96875 4.90625 C 24.289062 5.195312 23.550781 5.34375 22.75 5.34375 Z M 2.125 -3.296875 C 2.125 -2.941406 2.242188 -2.671875 2.484375 -2.484375 C 2.734375 -2.296875 3.035156 -2.203125 3.390625 -2.203125 C 4.128906 -2.203125 4.800781 -2.351562 5.40625 -2.65625 C 6.019531 -2.957031 6.578125 -3.367188 7.078125 -3.890625 C 6.578125 -4.109375 6.0625 -4.28125 5.53125 -4.40625 C 5 -4.53125 4.460938 -4.59375 3.921875 -4.59375 C 3.410156 -4.59375 2.984375 -4.460938 2.640625 -4.203125 C 2.296875 -3.941406 2.125 -3.640625 2.125 -3.296875 Z M 16.34375 -14.96875 C 17.550781 -15.25 18.625 -15.707031 19.5625 -16.34375 C 20.507812 -16.976562 21.25 -17.722656 21.78125 -18.578125 C 22.3125 -19.441406 22.578125 -20.328125 22.578125 -21.234375 C 22.578125 -21.773438 22.414062 -22.234375 22.09375 -22.609375 C 21.769531 -22.984375 21.335938 -23.171875 20.796875 -23.171875 C 19.992188 -23.171875 19.328125 -22.800781 18.796875 -22.0625 C 18.273438 -21.320312 17.820312 -20.332031 17.4375 -19.09375 C 17.0625 -17.851562 16.695312 -16.476562 16.34375 -14.96875 Z M 16.34375 -14.96875 "/></g></g></g><g fill="#6f4323" fill-opacity="1"><g transform="translate(48.088921, 36.74885)"><g><path d="M 4.34375 0 C 3.5 0 2.726562 -0.207031 2.03125 -0.625 C 1.332031 -1.050781 0.769531 -1.640625 0.34375 -2.390625 C -0.0703125 -3.148438 -0.28125 -4.03125 -0.28125 -5.03125 C -0.28125 -6.09375 -0.101562 -7.109375 0.25 -8.078125 C 0.601562 -9.054688 1.09375 -9.921875 1.71875 -10.671875 C 2.34375 -11.429688 3.050781 -12.03125 3.84375 -12.46875 C 4.632812 -12.90625 5.460938 -13.125 6.328125 -13.125 C 6.660156 -13.125 6.925781 -13.035156 7.125 -12.859375 C 7.320312 -12.679688 7.410156 -12.472656 7.390625 -12.234375 C 7.367188 -12.003906 7.203125 -11.804688 6.890625 -11.640625 C 6.066406 -11.210938 5.40625 -10.679688 4.90625 -10.046875 C 4.414062 -9.410156 4.0625 -8.75 3.84375 -8.0625 C 3.632812 -7.375 3.53125 -6.710938 3.53125 -6.078125 C 3.53125 -5.140625 3.664062 -4.445312 3.9375 -4 C 4.207031 -3.550781 4.546875 -3.328125 4.953125 -3.328125 C 5.453125 -3.328125 5.90625 -3.609375 6.3125 -4.171875 C 6.726562 -4.734375 7.019531 -5.359375 7.1875 -6.046875 C 6.6875 -6.378906 6.3125 -6.804688 6.0625 -7.328125 C 5.8125 -7.847656 5.6875 -8.390625 5.6875 -8.953125 C 5.6875 -9.609375 5.835938 -10.125 6.140625 -10.5 C 6.453125 -10.882812 6.8125 -11.078125 7.21875 -11.078125 C 7.988281 -11.078125 8.539062 -10.71875 8.875 -10 C 9.207031 -9.28125 9.375 -8.421875 9.375 -7.421875 C 9.6875 -7.421875 10.113281 -7.5625 10.65625 -7.84375 C 11.195312 -8.132812 11.675781 -8.738281 12.09375 -9.65625 C 12.332031 -10.175781 12.570312 -10.457031 12.8125 -10.5 C 13.0625 -10.550781 13.253906 -10.429688 13.390625 -10.140625 C 13.523438 -9.847656 13.546875 -9.453125 13.453125 -8.953125 C 13.367188 -8.453125 13.132812 -7.9375 12.75 -7.40625 C 12.363281 -6.882812 11.867188 -6.441406 11.265625 -6.078125 C 10.660156 -5.722656 9.972656 -5.523438 9.203125 -5.484375 C 9.054688 -4.660156 8.773438 -3.820312 8.359375 -2.96875 C 7.953125 -2.125 7.414062 -1.414062 6.75 -0.84375 C 6.09375 -0.28125 5.289062 0 4.34375 0 Z M 4.34375 0 "/></g></g></g><g fill="#6f4323" fill-opacity="1"><g transform="translate(59.08555, 36.74885)"><g><path d="M 3.890625 0 C 3.179688 0 2.609375 -0.148438 2.171875 -0.453125 C 1.734375 -0.765625 1.414062 -1.132812 1.21875 -1.5625 C 1.019531 -1.988281 0.921875 -2.390625 0.921875 -2.765625 C 0.921875 -3.472656 1.015625 -3.878906 1.203125 -3.984375 C 1.390625 -4.085938 1.585938 -4.019531 1.796875 -3.78125 C 2.066406 -3.476562 2.363281 -3.328125 2.6875 -3.328125 C 3.113281 -3.328125 3.460938 -3.476562 3.734375 -3.78125 C 4.003906 -4.09375 4.203125 -4.453125 4.328125 -4.859375 C 4.460938 -5.273438 4.53125 -5.632812 4.53125 -5.9375 C 4.53125 -6.695312 4.273438 -7.394531 3.765625 -8.03125 C 3.265625 -8.664062 2.492188 -9.222656 1.453125 -9.703125 C 1.066406 -9.910156 0.671875 -10.222656 0.265625 -10.640625 C -0.128906 -11.066406 -0.328125 -11.597656 -0.328125 -12.234375 C -0.328125 -12.867188 -0.171875 -13.34375 0.140625 -13.65625 C 0.453125 -13.96875 0.757812 -14.125 1.0625 -14.125 C 2.257812 -14.125 2.859375 -13.144531 2.859375 -11.1875 C 3.410156 -10.875 4.007812 -10.53125 4.65625 -10.15625 C 5.300781 -9.78125 5.910156 -9.347656 6.484375 -8.859375 C 7.066406 -8.378906 7.550781 -7.816406 7.9375 -7.171875 C 8.332031 -6.535156 8.5625 -5.785156 8.625 -4.921875 C 8.976562 -5.441406 9.28125 -5.921875 9.53125 -6.359375 C 9.78125 -6.804688 10.015625 -7.285156 10.234375 -7.796875 C 10.460938 -8.304688 10.71875 -8.925781 11 -9.65625 C 11.1875 -10.132812 11.421875 -10.398438 11.703125 -10.453125 C 11.984375 -10.515625 12.207031 -10.40625 12.375 -10.125 C 12.539062 -9.84375 12.539062 -9.453125 12.375 -8.953125 C 11.976562 -7.773438 11.507812 -6.648438 10.96875 -5.578125 C 10.425781 -4.503906 9.800781 -3.546875 9.09375 -2.703125 C 8.382812 -1.867188 7.59375 -1.207031 6.71875 -0.71875 C 5.851562 -0.238281 4.910156 0 3.890625 0 Z M 3.890625 0 "/></g></g></g><g fill="#6f4323" fill-opacity="1"><g transform="translate(69.046871, 36.74885)"><g/></g></g><g fill="#6f4323" fill-opacity="1"><g transform="translate(77.441244, 36.74885)"><g><path d="M 5.65625 1.734375 C 4.695312 1.734375 3.785156 1.492188 2.921875 1.015625 C 2.054688 0.546875 1.351562 -0.128906 0.8125 -1.015625 C 0.269531 -1.898438 0 -2.96875 0 -4.21875 C 0 -5.207031 0.210938 -6.078125 0.640625 -6.828125 C 1.066406 -7.578125 1.613281 -8.160156 2.28125 -8.578125 C 2.945312 -8.992188 3.632812 -9.203125 4.34375 -9.203125 C 4.863281 -9.203125 5.300781 -9.082031 5.65625 -8.84375 C 6.007812 -8.601562 6.203125 -8.359375 6.234375 -8.109375 C 6.273438 -7.867188 6.070312 -7.75 5.625 -7.75 C 5.0625 -7.75 4.507812 -7.644531 3.96875 -7.4375 C 3.425781 -7.238281 2.984375 -6.921875 2.640625 -6.484375 C 2.296875 -6.054688 2.125 -5.5 2.125 -4.8125 C 2.125 -3.96875 2.378906 -3.300781 2.890625 -2.8125 C 3.410156 -2.332031 4.097656 -2.09375 4.953125 -2.09375 C 5.960938 -2.09375 6.773438 -2.378906 7.390625 -2.953125 C 8.003906 -3.523438 8.5 -4.300781 8.875 -5.28125 C 9.25 -6.257812 9.570312 -7.351562 9.84375 -8.5625 C 9.320312 -8.632812 8.941406 -8.789062 8.703125 -9.03125 C 8.460938 -9.28125 8.375 -9.519531 8.4375 -9.75 C 8.5 -9.988281 8.738281 -10.109375 9.15625 -10.109375 L 10.15625 -10.125 C 10.4375 -11.488281 10.75 -12.882812 11.09375 -14.3125 C 11.4375 -15.738281 11.898438 -17.09375 12.484375 -18.375 C 13.078125 -19.664062 13.867188 -20.78125 14.859375 -21.71875 C 12.847656 -21.675781 11.082031 -21.359375 9.5625 -20.765625 C 8.039062 -20.179688 6.851562 -19.421875 6 -18.484375 C 5.15625 -17.554688 4.734375 -16.546875 4.734375 -15.453125 C 4.734375 -13.546875 5.5 -12.59375 7.03125 -12.59375 C 7.207031 -12.59375 7.269531 -12.507812 7.21875 -12.34375 C 7.164062 -12.175781 7.007812 -12.003906 6.75 -11.828125 C 6.488281 -11.660156 6.125 -11.578125 5.65625 -11.578125 C 4.90625 -11.578125 4.273438 -11.769531 3.765625 -12.15625 C 3.253906 -12.539062 2.863281 -13.015625 2.59375 -13.578125 C 2.320312 -14.148438 2.1875 -14.707031 2.1875 -15.25 C 2.1875 -16.425781 2.546875 -17.515625 3.265625 -18.515625 C 3.992188 -19.523438 5.003906 -20.40625 6.296875 -21.15625 C 7.585938 -21.90625 9.070312 -22.488281 10.75 -22.90625 C 12.425781 -23.320312 14.207031 -23.53125 16.09375 -23.53125 C 16.445312 -23.976562 16.84375 -24.363281 17.28125 -24.6875 C 17.71875 -25.019531 18.253906 -25.1875 18.890625 -25.1875 C 19.171875 -25.1875 19.390625 -25.109375 19.546875 -24.953125 C 19.703125 -24.804688 19.78125 -24.613281 19.78125 -24.375 C 19.800781 -23.96875 19.582031 -23.507812 19.125 -23 C 18.664062 -22.5 17.941406 -22.117188 16.953125 -21.859375 C 16.378906 -20.847656 15.90625 -19.722656 15.53125 -18.484375 C 15.15625 -17.242188 14.84375 -15.945312 14.59375 -14.59375 C 14.34375 -13.238281 14.097656 -11.890625 13.859375 -10.546875 C 14.546875 -10.679688 15.203125 -10.84375 15.828125 -11.03125 C 16.453125 -11.21875 17.046875 -11.421875 17.609375 -11.640625 C 17.804688 -12.816406 18.085938 -14.019531 18.453125 -15.25 C 18.816406 -16.476562 19.25 -17.648438 19.75 -18.765625 C 20.257812 -19.890625 20.832031 -20.898438 21.46875 -21.796875 C 22.101562 -22.691406 22.804688 -23.398438 23.578125 -23.921875 C 24.347656 -24.441406 25.191406 -24.703125 26.109375 -24.703125 C 26.929688 -24.703125 27.601562 -24.421875 28.125 -23.859375 C 28.644531 -23.304688 28.894531 -22.546875 28.875 -21.578125 C 28.875 -21.078125 28.710938 -20.414062 28.390625 -19.59375 C 28.078125 -18.769531 27.597656 -17.863281 26.953125 -16.875 C 26.316406 -15.882812 25.5 -14.898438 24.5 -13.921875 C 23.5 -12.941406 22.3125 -12.050781 20.9375 -11.25 C 20.707031 -9.832031 20.59375 -8.335938 20.59375 -6.765625 C 20.59375 -5.765625 20.722656 -4.941406 20.984375 -4.296875 C 21.242188 -3.648438 21.597656 -3.328125 22.046875 -3.328125 C 22.367188 -3.328125 22.722656 -3.488281 23.109375 -3.8125 C 23.503906 -4.144531 23.898438 -4.570312 24.296875 -5.09375 C 24.703125 -5.613281 25.082031 -6.160156 25.4375 -6.734375 C 25.789062 -7.316406 26.101562 -7.867188 26.375 -8.390625 C 26.644531 -8.910156 26.847656 -9.320312 26.984375 -9.625 C 27.160156 -10.070312 27.390625 -10.335938 27.671875 -10.421875 C 27.953125 -10.503906 28.175781 -10.425781 28.34375 -10.1875 C 28.507812 -9.957031 28.519531 -9.582031 28.375 -9.0625 C 28.257812 -8.632812 28.066406 -8.050781 27.796875 -7.3125 C 27.523438 -6.582031 27.1875 -5.796875 26.78125 -4.953125 C 26.375 -4.109375 25.898438 -3.3125 25.359375 -2.5625 C 24.816406 -1.820312 24.226562 -1.207031 23.59375 -0.71875 C 22.957031 -0.238281 22.285156 0 21.578125 0 C 20.234375 0 19.160156 -0.601562 18.359375 -1.8125 C 17.554688 -3.03125 17.15625 -4.785156 17.15625 -7.078125 C 17.15625 -7.859375 17.210938 -8.707031 17.328125 -9.625 C 16.742188 -9.4375 16.132812 -9.269531 15.5 -9.125 C 14.863281 -8.976562 14.210938 -8.859375 13.546875 -8.765625 C 13.285156 -7.335938 12.972656 -5.992188 12.609375 -4.734375 C 12.242188 -3.484375 11.769531 -2.367188 11.1875 -1.390625 C 10.613281 -0.421875 9.878906 0.335938 8.984375 0.890625 C 8.085938 1.453125 6.976562 1.734375 5.65625 1.734375 Z M 21.359375 -13.625 C 22.640625 -14.519531 23.695312 -15.472656 24.53125 -16.484375 C 25.363281 -17.492188 25.972656 -18.445312 26.359375 -19.34375 C 26.753906 -20.25 26.929688 -20.992188 26.890625 -21.578125 C 26.867188 -22.398438 26.664062 -22.8125 26.28125 -22.8125 C 25.832031 -22.8125 25.300781 -22.414062 24.6875 -21.625 C 24.070312 -20.84375 23.460938 -19.765625 22.859375 -18.390625 C 22.265625 -17.023438 21.765625 -15.4375 21.359375 -13.625 Z M 21.359375 -13.625 "/></g></g></g><g fill="#6f4323" fill-opacity="1"><g transform="translate(103.379866, 36.74885)"><g><path d="M 4.890625 0 C 4.109375 0 3.335938 -0.21875 2.578125 -0.65625 C 1.828125 -1.09375 1.207031 -1.75 0.71875 -2.625 C 0.238281 -3.507812 0 -4.601562 0 -5.90625 C 0 -6.738281 0.144531 -7.578125 0.4375 -8.421875 C 0.726562 -9.273438 1.140625 -10.054688 1.671875 -10.765625 C 2.203125 -11.484375 2.828125 -12.0625 3.546875 -12.5 C 4.273438 -12.9375 5.078125 -13.15625 5.953125 -13.15625 C 7.003906 -13.15625 7.804688 -12.882812 8.359375 -12.34375 C 8.921875 -11.800781 9.203125 -11.144531 9.203125 -10.375 C 9.203125 -9.613281 8.957031 -8.945312 8.46875 -8.375 C 7.988281 -7.8125 7.34375 -7.367188 6.53125 -7.046875 C 5.71875 -6.734375 4.828125 -6.554688 3.859375 -6.515625 L 3.859375 -6.375 C 3.859375 -5.46875 4 -4.734375 4.28125 -4.171875 C 4.5625 -3.609375 5.113281 -3.328125 5.9375 -3.328125 C 6.476562 -3.328125 7.046875 -3.515625 7.640625 -3.890625 C 8.234375 -4.265625 8.816406 -4.757812 9.390625 -5.375 C 9.960938 -5.988281 10.472656 -6.664062 10.921875 -7.40625 C 11.378906 -8.15625 11.738281 -8.894531 12 -9.625 C 12.207031 -10.164062 12.445312 -10.445312 12.71875 -10.46875 C 12.988281 -10.488281 13.203125 -10.351562 13.359375 -10.0625 C 13.515625 -9.769531 13.519531 -9.398438 13.375 -8.953125 C 13.039062 -7.890625 12.609375 -6.832031 12.078125 -5.78125 C 11.546875 -4.726562 10.914062 -3.765625 10.1875 -2.890625 C 9.457031 -2.023438 8.65625 -1.328125 7.78125 -0.796875 C 6.90625 -0.265625 5.941406 0 4.890625 0 Z M 4.078125 -8.28125 C 4.617188 -8.320312 5.132812 -8.421875 5.625 -8.578125 C 6.113281 -8.734375 6.515625 -8.957031 6.828125 -9.25 C 7.140625 -9.550781 7.296875 -9.925781 7.296875 -10.375 C 7.296875 -10.601562 7.238281 -10.820312 7.125 -11.03125 C 7.019531 -11.25 6.78125 -11.359375 6.40625 -11.359375 C 6 -11.359375 5.644531 -11.207031 5.34375 -10.90625 C 5.039062 -10.613281 4.785156 -10.226562 4.578125 -9.75 C 4.378906 -9.269531 4.210938 -8.78125 4.078125 -8.28125 Z M 4.078125 -8.28125 "/></g></g></g><g fill="#6f4323" fill-opacity="1"><g transform="translate(114.320529, 36.74885)"><g><path d="M 5.34375 0 C 4.75 0 4.222656 -0.179688 3.765625 -0.546875 C 3.304688 -0.910156 2.953125 -1.390625 2.703125 -1.984375 C 2.453125 -2.578125 2.328125 -3.203125 2.328125 -3.859375 C 2.328125 -4.492188 2.414062 -5.101562 2.59375 -5.6875 C 2.78125 -6.28125 2.960938 -6.796875 3.140625 -7.234375 C 3.328125 -7.671875 3.421875 -7.984375 3.421875 -8.171875 C 3.421875 -8.429688 3.289062 -8.660156 3.03125 -8.859375 C 2.78125 -9.054688 2.46875 -9.242188 2.09375 -9.421875 C 1.726562 -9.597656 1.359375 -9.800781 0.984375 -10.03125 C 0.609375 -10.257812 0.296875 -10.550781 0.046875 -10.90625 C -0.203125 -11.269531 -0.328125 -11.710938 -0.328125 -12.234375 C -0.328125 -12.867188 -0.171875 -13.34375 0.140625 -13.65625 C 0.453125 -13.96875 0.757812 -14.125 1.0625 -14.125 C 1.625 -14.125 2.0625 -13.878906 2.375 -13.390625 C 2.695312 -12.898438 2.859375 -12.160156 2.859375 -11.171875 C 3.234375 -10.867188 3.679688 -10.648438 4.203125 -10.515625 C 4.722656 -10.390625 5.234375 -10.257812 5.734375 -10.125 C 6.242188 -10 6.660156 -9.804688 6.984375 -9.546875 C 7.304688 -9.285156 7.46875 -8.863281 7.46875 -8.28125 C 7.46875 -7.945312 7.347656 -7.566406 7.109375 -7.140625 C 6.867188 -6.710938 6.617188 -6.257812 6.359375 -5.78125 C 6.109375 -5.300781 5.984375 -4.800781 5.984375 -4.28125 C 5.984375 -4.019531 6.023438 -3.796875 6.109375 -3.609375 C 6.191406 -3.421875 6.347656 -3.328125 6.578125 -3.328125 C 7.148438 -3.328125 7.835938 -3.890625 8.640625 -5.015625 C 9.441406 -6.148438 10.265625 -7.695312 11.109375 -9.65625 C 11.316406 -10.132812 11.554688 -10.394531 11.828125 -10.4375 C 12.109375 -10.488281 12.328125 -10.378906 12.484375 -10.109375 C 12.648438 -9.835938 12.648438 -9.453125 12.484375 -8.953125 C 12.085938 -7.773438 11.632812 -6.648438 11.125 -5.578125 C 10.613281 -4.503906 10.046875 -3.546875 9.421875 -2.703125 C 8.804688 -1.867188 8.15625 -1.207031 7.46875 -0.71875 C 6.78125 -0.238281 6.070312 0 5.34375 0 Z M 5.34375 0 "/></g></g></g><g fill="#6f4323" fill-opacity="1"><g transform="translate(124.393782, 36.74885)"><g><path d="M 16.453125 0 C 15.816406 0 15.289062 -0.191406 14.875 -0.578125 C 14.457031 -0.972656 14.144531 -1.460938 13.9375 -2.046875 C 13.726562 -2.640625 13.625 -3.242188 13.625 -3.859375 C 13.625 -4.515625 13.707031 -5.195312 13.875 -5.90625 C 14.039062 -6.613281 14.21875 -7.273438 14.40625 -7.890625 C 14.59375 -8.503906 14.707031 -9.003906 14.75 -9.390625 C 14.800781 -9.773438 14.695312 -9.96875 14.4375 -9.96875 C 14.15625 -9.96875 13.84375 -9.742188 13.5 -9.296875 C 13.15625 -8.847656 12.816406 -8.257812 12.484375 -7.53125 C 12.148438 -6.800781 11.84375 -6.015625 11.5625 -5.171875 C 11.28125 -4.335938 11.050781 -3.523438 10.875 -2.734375 C 10.695312 -1.941406 10.609375 -1.242188 10.609375 -0.640625 C 10.609375 -0.285156 10.4375 -0.0546875 10.09375 0.046875 C 9.75 0.160156 9.34375 0.117188 8.875 -0.078125 C 8.40625 -0.285156 8 -0.695312 7.65625 -1.3125 C 7.3125 -1.925781 7.140625 -2.773438 7.140625 -3.859375 C 7.140625 -4.515625 7.210938 -5.195312 7.359375 -5.90625 C 7.503906 -6.613281 7.648438 -7.273438 7.796875 -7.890625 C 7.953125 -8.503906 8.039062 -9.003906 8.0625 -9.390625 C 8.09375 -9.773438 7.976562 -9.96875 7.71875 -9.96875 C 7.4375 -9.96875 7.125 -9.742188 6.78125 -9.296875 C 6.4375 -8.847656 6.097656 -8.257812 5.765625 -7.53125 C 5.429688 -6.800781 5.125 -6.015625 4.84375 -5.171875 C 4.5625 -4.335938 4.332031 -3.523438 4.15625 -2.734375 C 3.976562 -1.941406 3.890625 -1.242188 3.890625 -0.640625 C 3.890625 -0.359375 3.765625 -0.148438 3.515625 -0.015625 C 3.265625 0.109375 2.953125 0.128906 2.578125 0.046875 C 2.203125 -0.0351562 1.828125 -0.25 1.453125 -0.59375 C 1.078125 -0.945312 0.765625 -1.445312 0.515625 -2.09375 C 0.265625 -2.75 0.140625 -3.582031 0.140625 -4.59375 C 0.140625 -5.707031 0.1875 -6.722656 0.28125 -7.640625 C 0.375 -8.554688 0.632812 -9.523438 1.0625 -10.546875 C 1.320312 -11.148438 1.675781 -11.597656 2.125 -11.890625 C 2.570312 -12.191406 3.019531 -12.367188 3.46875 -12.421875 C 3.914062 -12.484375 4.285156 -12.445312 4.578125 -12.3125 C 4.867188 -12.1875 4.992188 -11.988281 4.953125 -11.71875 C 4.835938 -11.03125 4.644531 -10.34375 4.375 -9.65625 C 4.101562 -8.976562 3.921875 -8.210938 3.828125 -7.359375 C 4.710938 -9.191406 5.613281 -10.59375 6.53125 -11.5625 C 7.457031 -12.53125 8.460938 -13.015625 9.546875 -13.015625 C 10.140625 -13.015625 10.625 -12.785156 11 -12.328125 C 11.382812 -11.867188 11.578125 -11.3125 11.578125 -10.65625 C 11.578125 -10.382812 11.554688 -10.101562 11.515625 -9.8125 C 11.484375 -9.519531 11.453125 -9.21875 11.421875 -8.90625 C 12.160156 -10.226562 12.921875 -11.242188 13.703125 -11.953125 C 14.492188 -12.660156 15.347656 -13.015625 16.265625 -13.015625 C 16.859375 -13.015625 17.34375 -12.785156 17.71875 -12.328125 C 18.101562 -11.867188 18.296875 -11.3125 18.296875 -10.65625 C 18.296875 -9.945312 18.210938 -9.207031 18.046875 -8.4375 C 17.878906 -7.675781 17.710938 -6.9375 17.546875 -6.21875 C 17.378906 -5.507812 17.296875 -4.851562 17.296875 -4.25 C 17.296875 -3.632812 17.488281 -3.328125 17.875 -3.328125 C 18.226562 -3.328125 18.601562 -3.5625 19 -4.03125 C 19.40625 -4.507812 19.796875 -5.097656 20.171875 -5.796875 C 20.546875 -6.503906 20.882812 -7.207031 21.1875 -7.90625 C 21.5 -8.601562 21.734375 -9.175781 21.890625 -9.625 C 22.054688 -10.09375 22.273438 -10.367188 22.546875 -10.453125 C 22.816406 -10.535156 23.039062 -10.453125 23.21875 -10.203125 C 23.40625 -9.960938 23.425781 -9.582031 23.28125 -9.0625 C 23.164062 -8.65625 22.96875 -8.082031 22.6875 -7.34375 C 22.414062 -6.601562 22.070312 -5.8125 21.65625 -4.96875 C 21.25 -4.132812 20.773438 -3.335938 20.234375 -2.578125 C 19.691406 -1.828125 19.101562 -1.207031 18.46875 -0.71875 C 17.832031 -0.238281 17.160156 0 16.453125 0 Z M 16.453125 0 "/></g></g></g><g fill="#6f4323" fill-opacity="1"><g transform="translate(145.239811, 36.74885)"><g><path d="M 4.203125 0 C 2.953125 0 1.914062 -0.457031 1.09375 -1.375 C 0.269531 -2.300781 -0.140625 -3.566406 -0.140625 -5.171875 C -0.140625 -6.128906 0.00390625 -7.070312 0.296875 -8 C 0.597656 -8.9375 1.015625 -9.796875 1.546875 -10.578125 C 2.078125 -11.359375 2.710938 -11.984375 3.453125 -12.453125 C 4.191406 -12.921875 4.988281 -13.15625 5.84375 -13.15625 C 6.539062 -13.15625 7.113281 -12.960938 7.5625 -12.578125 C 8.007812 -12.191406 8.351562 -11.726562 8.59375 -11.1875 C 8.90625 -11.582031 9.285156 -11.878906 9.734375 -12.078125 C 10.179688 -12.285156 10.609375 -12.394531 11.015625 -12.40625 C 11.429688 -12.414062 11.742188 -12.34375 11.953125 -12.1875 C 12.171875 -12.03125 12.207031 -11.785156 12.0625 -11.453125 C 11.851562 -10.960938 11.664062 -10.347656 11.5 -9.609375 C 11.332031 -8.867188 11.207031 -8.148438 11.125 -7.453125 C 11.039062 -6.753906 11 -6.210938 11 -5.828125 C 11 -4.847656 11.097656 -4.1875 11.296875 -3.84375 C 11.503906 -3.5 11.757812 -3.328125 12.0625 -3.328125 C 12.65625 -3.328125 13.257812 -3.847656 13.875 -4.890625 C 14.488281 -5.941406 15.238281 -7.53125 16.125 -9.65625 C 16.320312 -10.132812 16.5625 -10.394531 16.84375 -10.4375 C 17.125 -10.488281 17.34375 -10.378906 17.5 -10.109375 C 17.65625 -9.835938 17.648438 -9.453125 17.484375 -8.953125 C 16.960938 -7.367188 16.347656 -5.894531 15.640625 -4.53125 C 14.929688 -3.164062 14.179688 -2.070312 13.390625 -1.25 C 12.597656 -0.4375 11.78125 -0.0195312 10.9375 0 C 10.15625 0.0195312 9.484375 -0.203125 8.921875 -0.671875 C 8.367188 -1.140625 7.960938 -1.765625 7.703125 -2.546875 C 7.285156 -1.835938 6.785156 -1.234375 6.203125 -0.734375 C 5.628906 -0.242188 4.960938 0 4.203125 0 Z M 3.671875 -5.265625 C 3.671875 -4.722656 3.765625 -4.265625 3.953125 -3.890625 C 4.148438 -3.515625 4.390625 -3.328125 4.671875 -3.328125 C 5.078125 -3.328125 5.476562 -3.539062 5.875 -3.96875 C 6.269531 -4.40625 6.613281 -5 6.90625 -5.75 C 7.207031 -6.507812 7.414062 -7.375 7.53125 -8.34375 C 7.644531 -9.382812 7.554688 -10.097656 7.265625 -10.484375 C 6.972656 -10.878906 6.648438 -11.078125 6.296875 -11.078125 C 5.960938 -11.078125 5.640625 -10.894531 5.328125 -10.53125 C 5.023438 -10.164062 4.742188 -9.691406 4.484375 -9.109375 C 4.234375 -8.523438 4.035156 -7.894531 3.890625 -7.21875 C 3.742188 -6.550781 3.671875 -5.898438 3.671875 -5.265625 Z M 3.671875 -5.265625 "/></g></g></g><g fill="#6f4323" fill-opacity="1"><g transform="translate(160.321701, 36.74885)"><g><path d="M 10.265625 0 C 9.628906 0 9.101562 -0.191406 8.6875 -0.578125 C 8.269531 -0.972656 7.957031 -1.460938 7.75 -2.046875 C 7.539062 -2.640625 7.4375 -3.242188 7.4375 -3.859375 C 7.4375 -4.515625 7.5 -5.195312 7.625 -5.90625 C 7.757812 -6.613281 7.894531 -7.273438 8.03125 -7.890625 C 8.164062 -8.503906 8.238281 -9.003906 8.25 -9.390625 C 8.269531 -9.773438 8.175781 -9.96875 7.96875 -9.96875 C 7.695312 -9.96875 7.382812 -9.742188 7.03125 -9.296875 C 6.6875 -8.859375 6.347656 -8.28125 6.015625 -7.5625 C 5.679688 -6.851562 5.375 -6.082031 5.09375 -5.25 C 4.8125 -4.414062 4.582031 -3.601562 4.40625 -2.8125 C 4.226562 -2.019531 4.140625 -1.332031 4.140625 -0.75 C 4.140625 -0.550781 4.0625 -0.394531 3.90625 -0.28125 C 3.75 -0.164062 3.546875 -0.109375 3.296875 -0.109375 C 2.929688 -0.109375 2.519531 -0.25 2.0625 -0.53125 C 1.601562 -0.8125 1.207031 -1.28125 0.875 -1.9375 C 0.550781 -2.601562 0.390625 -3.488281 0.390625 -4.59375 C 0.390625 -5.707031 0.4375 -6.722656 0.53125 -7.640625 C 0.625 -8.554688 0.882812 -9.523438 1.3125 -10.546875 C 1.570312 -11.148438 1.925781 -11.597656 2.375 -11.890625 C 2.820312 -12.191406 3.269531 -12.367188 3.71875 -12.421875 C 4.164062 -12.484375 4.535156 -12.445312 4.828125 -12.3125 C 5.117188 -12.1875 5.242188 -11.988281 5.203125 -11.71875 C 5.085938 -11.03125 4.894531 -10.34375 4.625 -9.65625 C 4.351562 -8.976562 4.171875 -8.210938 4.078125 -7.359375 C 5.015625 -9.191406 5.976562 -10.59375 6.96875 -11.5625 C 7.957031 -12.53125 8.992188 -13.015625 10.078125 -13.015625 C 10.671875 -13.015625 11.160156 -12.785156 11.546875 -12.328125 C 11.929688 -11.867188 12.125 -11.3125 12.125 -10.65625 C 12.125 -9.945312 12.035156 -9.207031 11.859375 -8.4375 C 11.691406 -7.675781 11.523438 -6.9375 11.359375 -6.21875 C 11.191406 -5.507812 11.109375 -4.851562 11.109375 -4.25 C 11.109375 -3.632812 11.304688 -3.328125 11.703125 -3.328125 C 12.054688 -3.328125 12.429688 -3.5625 12.828125 -4.03125 C 13.234375 -4.507812 13.617188 -5.097656 13.984375 -5.796875 C 14.359375 -6.503906 14.695312 -7.207031 15 -7.90625 C 15.3125 -8.601562 15.546875 -9.175781 15.703125 -9.625 C 15.867188 -10.09375 16.085938 -10.367188 16.359375 -10.453125 C 16.628906 -10.535156 16.859375 -10.453125 17.046875 -10.203125 C 17.234375 -9.960938 17.25 -9.582031 17.09375 -9.0625 C 16.988281 -8.65625 16.796875 -8.082031 16.515625 -7.34375 C 16.234375 -6.601562 15.882812 -5.8125 15.46875 -4.96875 C 15.0625 -4.132812 14.585938 -3.335938 14.046875 -2.578125 C 13.503906 -1.828125 12.914062 -1.207031 12.28125 -0.71875 C 11.644531 -0.238281 10.972656 0 10.265625 0 Z M 10.265625 0 "/></g></g></g><g fill="#6f4323" fill-opacity="1"><g transform="translate(174.983874, 36.74885)"><g><path d="M 4.34375 0 C 3.5 0 2.726562 -0.207031 2.03125 -0.625 C 1.332031 -1.050781 0.769531 -1.640625 0.34375 -2.390625 C -0.0703125 -3.148438 -0.28125 -4.03125 -0.28125 -5.03125 C -0.28125 -6.09375 -0.101562 -7.109375 0.25 -8.078125 C 0.601562 -9.054688 1.09375 -9.921875 1.71875 -10.671875 C 2.34375 -11.429688 3.050781 -12.03125 3.84375 -12.46875 C 4.632812 -12.90625 5.460938 -13.125 6.328125 -13.125 C 6.660156 -13.125 6.925781 -13.035156 7.125 -12.859375 C 7.320312 -12.679688 7.410156 -12.472656 7.390625 -12.234375 C 7.367188 -12.003906 7.203125 -11.804688 6.890625 -11.640625 C 6.066406 -11.210938 5.40625 -10.679688 4.90625 -10.046875 C 4.414062 -9.410156 4.0625 -8.75 3.84375 -8.0625 C 3.632812 -7.375 3.53125 -6.710938 3.53125 -6.078125 C 3.53125 -5.140625 3.664062 -4.445312 3.9375 -4 C 4.207031 -3.550781 4.546875 -3.328125 4.953125 -3.328125 C 5.453125 -3.328125 5.90625 -3.609375 6.3125 -4.171875 C 6.726562 -4.734375 7.019531 -5.359375 7.1875 -6.046875 C 6.6875 -6.378906 6.3125 -6.804688 6.0625 -7.328125 C 5.8125 -7.847656 5.6875 -8.390625 5.6875 -8.953125 C 5.6875 -9.609375 5.835938 -10.125 6.140625 -10.5 C 6.453125 -10.882812 6.8125 -11.078125 7.21875 -11.078125 C 7.988281 -11.078125 8.539062 -10.71875 8.875 -10 C 9.207031 -9.28125 9.375 -8.421875 9.375 -7.421875 C 9.6875 -7.421875 10.113281 -7.5625 10.65625 -7.84375 C 11.195312 -8.132812 11.675781 -8.738281 12.09375 -9.65625 C 12.332031 -10.175781 12.570312 -10.457031 12.8125 -10.5 C 13.0625 -10.550781 13.253906 -10.429688 13.390625 -10.140625 C 13.523438 -9.847656 13.546875 -9.453125 13.453125 -8.953125 C 13.367188 -8.453125 13.132812 -7.9375 12.75 -7.40625 C 12.363281 -6.882812 11.867188 -6.441406 11.265625 -6.078125 C 10.660156 -5.722656 9.972656 -5.523438 9.203125 -5.484375 C 9.054688 -4.660156 8.773438 -3.820312 8.359375 -2.96875 C 7.953125 -2.125 7.414062 -1.414062 6.75 -0.84375 C 6.09375 -0.28125 5.289062 0 4.34375 0 Z M 4.34375 0 "/></g></g></g><g fill="#6f4323" fill-opacity="1"><g transform="translate(185.980504, 36.74885)"><g><path d="M 3.890625 0 C 3.179688 0 2.609375 -0.148438 2.171875 -0.453125 C 1.734375 -0.765625 1.414062 -1.132812 1.21875 -1.5625 C 1.019531 -1.988281 0.921875 -2.390625 0.921875 -2.765625 C 0.921875 -3.472656 1.015625 -3.878906 1.203125 -3.984375 C 1.390625 -4.085938 1.585938 -4.019531 1.796875 -3.78125 C 2.066406 -3.476562 2.363281 -3.328125 2.6875 -3.328125 C 3.113281 -3.328125 3.460938 -3.476562 3.734375 -3.78125 C 4.003906 -4.09375 4.203125 -4.453125 4.328125 -4.859375 C 4.460938 -5.273438 4.53125 -5.632812 4.53125 -5.9375 C 4.53125 -6.695312 4.273438 -7.394531 3.765625 -8.03125 C 3.265625 -8.664062 2.492188 -9.222656 1.453125 -9.703125 C 1.066406 -9.910156 0.671875 -10.222656 0.265625 -10.640625 C -0.128906 -11.066406 -0.328125 -11.597656 -0.328125 -12.234375 C -0.328125 -12.867188 -0.171875 -13.34375 0.140625 -13.65625 C 0.453125 -13.96875 0.757812 -14.125 1.0625 -14.125 C 2.257812 -14.125 2.859375 -13.144531 2.859375 -11.1875 C 3.410156 -10.875 4.007812 -10.53125 4.65625 -10.15625 C 5.300781 -9.78125 5.910156 -9.347656 6.484375 -8.859375 C 7.066406 -8.378906 7.550781 -7.816406 7.9375 -7.171875 C 8.332031 -6.535156 8.5625 -5.785156 8.625 -4.921875 C 8.976562 -5.441406 9.28125 -5.921875 9.53125 -6.359375 C 9.78125 -6.804688 10.015625 -7.285156 10.234375 -7.796875 C 10.460938 -8.304688 10.71875 -8.925781 11 -9.65625 C 11.1875 -10.132812 11.421875 -10.398438 11.703125 -10.453125 C 11.984375 -10.515625 12.207031 -10.40625 12.375 -10.125 C 12.539062 -9.84375 12.539062 -9.453125 12.375 -8.953125 C 11.976562 -7.773438 11.507812 -6.648438 10.96875 -5.578125 C 10.425781 -4.503906 9.800781 -3.546875 9.09375 -2.703125 C 8.382812 -1.867188 7.59375 -1.207031 6.71875 -0.71875 C 5.851562 -0.238281 4.910156 0 3.890625 0 Z M 3.890625 0 "/></g></g></g></svg>